HIERARCHY
ROOT Hips
{
	OFFSET -0.001795 -0.223333 0.028219
	CHANNELS 6 Xposition Yposition Zposition Zrotation Yrotation Xrotation 
	JOINT LeftUpLeg
	{
		OFFSET 0.069520 -0.091406 -0.006815
		CHANNELS 3 Zrotation Yrotation Xrotation
		JOINT LeftLeg
		{
			OFFSET 0.034277 -0.375199 -0.004496
			CHANNELS 3 Zrotation Yrotation Xrotation
			JOINT LeftFoot
			{
				OFFSET -0.013596 -0.397961 -0.043693
				CHANNELS 3 Zrotation Yrotation Xrotation
				JOINT LeftToe
				{
					OFFSET 0.026358 -0.055791 0.119288
					CHANNELS 3 Zrotation Yrotation Xrotation
					End Site
					{
						OFFSET 0.000000 0.000000 0.000000
					}
				}
			}
		}
	}
	JOINT RightUpLeg
	{
		OFFSET -0.067670 -0.090522 -0.004320
		CHANNELS 3 Zrotation Yrotation Xrotation
		JOINT RightLeg
		{
			OFFSET -0.038290 -0.382569 -0.008850
			CHANNELS 3 Zrotation Yrotation Xrotation
			JOINT RightFoot
			{
				OFFSET 0.015774 -0.398415 -0.042312
				CHANNELS 3 Zrotation Yrotation Xrotation
				JOINT RightToe
				{
					OFFSET -0.025372 -0.048144 0.123348
					CHANNELS 3 Zrotation Yrotation Xrotation
					End Site
					{
						OFFSET 0.000000 0.000000 0.000000
					}
				}
			}
		}
	}
	JOINT Spine
	{
		OFFSET -0.002533 0.108963 -0.026696
		CHANNELS 3 Zrotation Yrotation Xrotation
		JOINT Spine1
		{
			OFFSET 0.005487 0.135180 0.001092
			CHANNELS 3 Zrotation Yrotation Xrotation
			JOINT Spine2
			{
				OFFSET 0.001457 0.052922 0.025425
				CHANNELS 3 Zrotation Yrotation Xrotation
				JOINT Neck
				{
					OFFSET -0.002778 0.213870 -0.042857
					CHANNELS 3 Zrotation Yrotation Xrotation
					JOINT Head
					{
						OFFSET 0.005152 0.064970 0.051349
						CHANNELS 3 Zrotation Yrotation Xrotation
						End Site
						{
							OFFSET 0.000000 0.000000 0.000000
						}
					}
				}
				JOINT LeftShoulder
				{
					OFFSET 0.078845 0.121749 -0.034090
					CHANNELS 3 Zrotation Yrotation Xrotation
					JOINT LeftArm
					{
						OFFSET 0.090977 0.030469 -0.008868
						CHANNELS 3 Zrotation Yrotation Xrotation
						JOINT LeftForeArm
						{
							OFFSET 0.259612 -0.012772 -0.027456
							CHANNELS 3 Zrotation Yrotation Xrotation
							JOINT LeftHand
							{
								OFFSET 0.249234 0.008986 -0.001171
								CHANNELS 3 Zrotation Yrotation Xrotation
								End Site
								{
									OFFSET 0.000000 0.000000 0.000000
								}
							}
						}
					}
				}
				JOINT RightShoulder
				{
					OFFSET -0.081759 0.118833 -0.038615
					CHANNELS 3 Zrotation Yrotation Xrotation
					JOINT RightArm
					{
						OFFSET -0.096012 0.032551 -0.009143
						CHANNELS 3 Zrotation Yrotation Xrotation
						JOINT RightForeArm
						{
							OFFSET -0.253742 -0.013329 -0.021401
							CHANNELS 3 Zrotation Yrotation Xrotation
							JOINT RightHand
							{
								OFFSET -0.255298 0.007772 -0.005559
								CHANNELS 3 Zrotation Yrotation Xrotation
								End Site
								{
									OFFSET 0.000000 0.000000 0.000000
								}
							}
						}
					}
				}
			}
		}
	}
}
MOTION
Frames: 12
Frame Time: 0.050000
0.822946 0.940533 -0.481784 -7.272826 30.654450 -2.692221 -2.163657 0.343674 17.827930 3.511065 -0.151130 -1.562809 -1.412593 -1.758319 1.283174 0.000000 0.000000 0.000000 12.272233 3.224003 -23.792841 6.755416 -3.409270 19.510466 4.015975 5.283164 15.631555 0.000000 0.000000 0.000000 5.163864 -1.326462 10.793227 9.208483 -4.125279 -2.529277 -5.568019 -8.464220 5.520878 6.187641 -2.512723 -11.698064 0.000000 0.000000 0.000000 -27.182116 -11.941375 1.254064 -29.911401 -8.553683 -0.683459 -20.974416 -64.634614 14.277168 0.000000 0.000000 0.000000 20.930053 -7.295634 -3.822206 42.140730 -15.032876 -9.191723 5.317291 47.655707 5.355717 0.000000 0.000000 0.000000 
0.869749 0.936516 -0.461293 -7.727200 32.705695 -2.234666 -3.868061 0.478703 19.576877 2.669247 -0.127288 -0.949733 0.397798 1.709040 1.601654 0.000000 0.000000 0.000000 15.941294 3.545781 -22.967987 5.182082 -2.141280 14.189259 1.483802 0.517463 21.553581 0.000000 0.000000 0.000000 5.275067 -1.233184 9.831579 10.176215 -5.001034 -1.048507 -5.398130 -9.564590 2.052608 5.334896 -2.543235 -8.100867 0.000000 0.000000 0.000000 -26.544329 -11.037599 0.769803 -30.142591 -6.111264 -1.064817 -18.048548 -64.682690 12.389982 0.000000 0.000000 0.000000 20.456408 -7.471853 -4.094867 40.686864 -14.703523 -8.471260 4.193362 47.026803 4.661941 0.000000 0.000000 0.000000 
0.923596 0.932852 -0.436656 -7.879352 34.403401 -2.646471 -4.545553 0.355219 21.838624 1.581732 -0.185150 1.453029 -2.555975 -0.589594 5.179761 0.000000 0.000000 0.000000 17.816540 3.423980 -20.569486 1.420204 -1.049947 14.418182 -0.712060 -2.199787 19.307081 0.000000 0.000000 0.000000 6.393294 -1.118510 8.106191 9.912993 -5.098488 -0.181770 -4.485970 -11.171759 0.257641 2.458306 -0.947444 -5.651570 0.000000 0.000000 0.000000 -26.279729 -7.463468 -1.009389 -31.562130 -4.188973 -1.623477 -28.098561 -63.856011 18.688013 0.000000 0.000000 0.000000 19.006199 -6.157302 -3.498795 38.581528 -12.595442 -7.309041 3.417553 46.078825 4.089900 0.000000 0.000000 0.000000 
0.980172 0.930039 -0.413909 -7.017774 34.325495 -3.469971 -2.327896 0.039677 19.352893 -5.046584 -0.236809 12.206904 -8.690297 -5.323906 12.244011 0.000000 0.000000 0.000000 16.767412 2.949291 -16.793227 -1.167871 -0.462822 16.228569 -1.511311 -3.280862 13.136398 0.000000 0.000000 0.000000 7.456605 -0.978825 6.502577 9.419374 -5.870675 3.450429 -4.599943 -8.432181 -2.509458 3.003825 -1.356834 -4.961722 0.000000 0.000000 0.000000 -26.563175 -8.019630 -1.499578 -30.399958 -2.085842 -1.672121 -30.111290 -60.751297 18.511653 0.000000 0.000000 0.000000 19.905199 -5.868453 -3.050737 36.621815 -10.386786 -6.305128 1.096362 47.349799 3.472404 0.000000 0.000000 0.000000 
1.033231 0.928973 -0.397489 -6.870395 34.234249 -5.320207 3.448667 -0.624406 12.117403 -15.758657 0.250930 29.741526 -8.252369 -2.380813 16.642130 0.000000 0.000000 0.000000 15.449425 2.382279 -12.659110 -2.647099 -0.212003 17.933618 -1.747078 -3.881456 8.772740 0.000000 0.000000 0.000000 8.704911 -1.361472 8.304332 8.245760 -5.570695 4.818726 -4.189283 -5.665922 -4.361147 4.407430 -2.843609 -2.339013 0.000000 0.000000 0.000000 -27.811690 -7.485599 -2.909362 -29.887309 -0.415023 -1.690499 -33.250735 -58.088387 19.077383 0.000000 0.000000 0.000000 22.025771 -3.156806 -0.995461 33.837195 -7.658036 -5.333544 -1.160148 48.217129 2.739649 0.000000 0.000000 0.000000 
1.081631 0.929956 -0.386058 -5.692354 33.949539 -6.138293 9.357799 -1.059393 3.423970 -25.046375 2.151989 42.721868 -0.043434 7.440258 14.540466 0.000000 0.000000 0.000000 11.437652 1.605327 -8.289309 -1.188302 -0.639205 17.516299 -1.475767 -3.582820 5.868336 0.000000 0.000000 0.000000 7.985469 -1.358403 9.095243 6.880057 -4.747820 4.874617 -2.718215 -2.653469 -2.385100 4.852269 -3.020410 -2.961917 0.000000 0.000000 0.000000 -28.695288 -9.275367 -2.940353 -30.350176 0.674471 -1.802871 -28.384984 -53.913953 14.641590 0.000000 0.000000 0.000000 24.432839 -1.392823 1.031047 31.917897 -2.106169 -4.344763 -5.813376 49.513314 1.045807 0.000000 0.000000 0.000000 
1.128840 0.934019 -0.375993 -3.812525 32.417655 -6.073815 13.418581 -1.184904 -4.527213 -27.327427 3.275068 46.720679 8.708930 18.669580 10.605359 0.000000 0.000000 0.000000 7.562248 0.940560 -4.829217 -1.423083 -0.469342 17.475911 -0.641443 -1.848450 5.109822 0.000000 0.000000 0.000000 6.738568 -1.379623 10.414156 5.375777 -4.125318 6.050911 -2.259316 1.089731 -3.093276 5.617060 -4.020508 -1.381333 0.000000 0.000000 0.000000 -29.069514 -9.105530 -4.215200 -29.488421 4.403456 -2.277606 -28.076882 -51.078795 13.402194 0.000000 0.000000 0.000000 24.868420 -0.730371 2.276431 31.635780 2.298731 -3.600926 -7.080806 52.595453 0.926979 0.000000 0.000000 0.000000 
1.178111 0.937590 -0.367177 -1.801953 30.269807 -5.635365 15.849702 -1.156363 -10.501158 -23.646577 2.551644 44.099256 11.071415 22.425156 12.138719 0.000000 0.000000 0.000000 2.768554 0.251253 -1.411140 -1.177625 -0.295277 16.348599 0.550723 0.733597 5.146946 0.000000 0.000000 0.000000 5.433108 -1.221325 10.629506 3.729866 -3.328420 7.098270 -1.393333 3.411574 -2.535979 5.246414 -3.514664 -2.193877 0.000000 0.000000 0.000000 -30.054947 -7.949698 -5.492395 -28.848417 5.922561 -2.495212 -25.672604 -46.989250 11.208868 0.000000 0.000000 0.000000 25.196090 1.790400 4.263989 30.788892 5.981257 -2.891759 -9.454010 56.357772 -0.162523 0.000000 0.000000 0.000000 
1.229855 0.937389 -0.358541 -0.888061 27.967405 -4.885717 18.697825 -1.164663 -11.800076 -15.714873 0.902415 32.266521 10.049508 20.024856 5.126327 0.000000 0.000000 0.000000 -0.893525 -0.199782 1.025337 -1.614325 0.054326 15.141516 1.427951 2.709164 4.598948 0.000000 0.000000 0.000000 5.281315 -1.132166 10.239780 2.427251 -2.475201 7.088169 -1.332484 5.970099 -1.377572 6.016372 -3.789983 -3.211861 0.000000 0.000000 0.000000 -29.333327 -7.207254 -6.349721 -29.099771 8.194379 -2.986921 -24.924796 -44.865935 10.164738 0.000000 0.000000 0.000000 24.533442 2.307122 5.066212 31.946989 8.588924 -2.549685 -7.200819 59.844391 1.556972 0.000000 0.000000 0.000000 
1.284263 0.931485 -0.349371 -0.744207 25.165123 -4.715401 21.708266 -1.216354 -10.285297 -6.336061 -0.002573 15.379707 2.118586 9.219730 9.362406 0.000000 0.000000 0.000000 -4.782986 -0.495976 2.683162 -1.534351 0.155579 15.490542 2.901511 6.275274 3.522495 0.000000 0.000000 0.000000 5.584219 -1.072935 9.743413 0.617077 -1.506338 8.039413 -1.118093 9.034620 -1.306878 6.281996 -3.942828 -3.280376 0.000000 0.000000 0.000000 -28.866208 -5.796536 -7.559342 -28.800912 8.757432 -3.051455 -24.754024 -43.439039 9.658207 0.000000 0.000000 0.000000 24.820089 1.803687 5.246517 32.165096 10.607148 -2.195526 -5.241016 61.308433 3.001122 0.000000 0.000000 0.000000 
1.342706 0.920583 -0.340731 -0.895810 23.329195 -5.008710 22.740621 -1.192104 -9.282626 -0.140776 -0.279076 5.737942 -8.519426 -2.939050 17.554613 0.000000 0.000000 0.000000 -7.785207 -0.723224 4.631066 -2.639748 0.537727 16.496698 3.178120 7.669646 1.304546 0.000000 0.000000 0.000000 5.696409 -1.035934 9.537136 -0.493929 -0.698813 7.388690 -0.110005 10.109035 0.593033 6.360081 -3.664431 -4.307593 0.000000 0.000000 0.000000 -27.708686 -4.941477 -7.726857 -30.828275 8.973963 -3.539679 -22.401586 -42.542141 8.315157 0.000000 0.000000 0.000000 25.410569 3.026136 6.274748 31.034927 11.982149 -2.002337 -3.527450 59.666614 3.533667 0.000000 0.000000 0.000000 
1.406299 0.906681 -0.334449 -0.394625 21.237886 -4.599755 21.693654 -0.937247 -9.481511 -0.855771 -0.225584 6.420409 -11.602254 -11.503336 13.611821 0.000000 0.000000 0.000000 -10.830910 -0.765433 5.138537 -5.077802 1.327545 18.889274 2.601652 7.022473 -0.790154 0.000000 0.000000 0.000000 5.573715 -0.961766 9.172299 -1.875858 0.040450 8.226347 -0.193699 13.009981 0.367640 8.319468 -5.025452 -4.616367 0.000000 0.000000 0.000000 -27.816640 -6.041967 -7.801163 -30.985954 8.515570 -3.278388 -19.929745 -41.014831 6.979586 0.000000 0.000000 0.000000 26.256761 2.105827 6.418655 31.867282 12.867153 -1.984455 -3.115240 55.563579 3.525864 0.000000 0.000000 0.000000 
